<svg width="439" height="435" viewBox="0 0 439 435" fill="none" xmlns="http://www.w3.org/2000/svg">
<path fill-rule="evenodd" clip-rule="evenodd" d="M246.645 140.779C288.981 136.435 335.479 123.257 372.648 137.502C410.144 151.873 429.234 182.988 426.214 209.598C423.388 234.491 373.69 245.45 357.816 268.161C341.563 291.413 364.399 324.143 334.222 341.208C303.797 358.413 253.982 355.684 212.578 350.292C173.264 345.173 143.184 327.776 111.498 312.206C76.9336 295.223 21.1661 282.497 20.1547 255.742C19.0978 227.785 76.9307 215.864 107.088 195.547C126.043 182.777 140.123 168.242 163.866 158.924C189.061 149.037 216.873 143.834 246.645 140.779Z" stroke="url(#paint0_linear_2018_29)" stroke-width="23"/>
<path fill-rule="evenodd" clip-rule="evenodd" d="M239.645 134.779C281.981 130.435 328.479 117.257 365.648 131.502C403.144 145.873 422.234 176.988 419.214 203.598C416.388 228.491 366.69 239.45 350.816 262.161C334.563 285.413 357.399 318.143 327.222 335.208C296.797 352.413 246.982 349.684 205.578 344.292C166.264 339.173 136.184 321.776 104.498 306.206C69.9336 289.223 14.1661 276.497 13.1547 249.742C12.0978 221.785 69.9307 209.864 100.088 189.547C119.043 176.777 133.123 162.242 156.866 152.924C182.061 143.037 209.873 137.834 239.645 134.779Z" stroke="url(#paint1_linear_2018_29)" stroke-width="23"/>
<g filter="url(#filter0_dd_2018_29)">
<path d="M15.8785 349.296C15.4356 348.189 15.2142 344.203 15.2142 337.339C15.2142 330.475 15.2142 321.84 15.2142 311.433C15.4356 301.026 15.6571 289.401 15.8785 276.559C16.3213 263.495 16.6535 250.32 16.8749 237.035C17.3177 223.528 17.7606 210.464 18.2034 197.843C18.6463 185.001 18.9784 173.598 19.1998 163.634C19.6427 153.67 19.9748 145.588 20.1962 139.388C20.4176 132.967 20.6391 129.535 20.8605 129.092C21.0819 128.206 22.0783 125.992 23.8497 122.449C25.6211 118.906 27.6139 115.253 29.8281 111.489C32.2637 107.503 34.6994 104.071 37.135 101.193C39.5707 98.0927 41.6742 96.6535 43.4455 96.8749C44.1098 97.0963 44.6634 101.525 45.1062 110.16C45.7705 118.574 46.324 129.424 46.7669 142.709C47.4311 155.995 47.874 170.719 48.0954 186.883C48.5383 202.825 48.8704 218.436 49.0918 233.714C49.5347 248.77 49.8668 262.499 50.0882 274.898C50.3096 287.077 50.5311 296.044 50.7525 301.801C57.838 302.465 64.9235 303.019 72.009 303.462C79.3159 303.905 85.8479 304.458 91.6049 305.122C97.3618 305.565 102.012 306.008 105.554 306.451C109.319 306.894 111.311 307.226 111.533 307.447C112.197 308.333 113.083 310.437 114.19 313.758C115.518 316.858 116.736 320.29 117.843 324.054C118.95 327.597 119.725 330.918 120.168 334.018C120.833 337.118 120.722 339 119.836 339.664C94.3726 344.314 74.6661 347.414 60.7165 348.964C46.7669 350.514 36.4707 351.289 29.8281 351.289C22.0783 351.289 17.4284 350.625 15.8785 349.296ZM181.374 157.323C182.924 158.652 184.363 161.198 185.692 164.962C187.242 168.726 188.57 173.266 189.677 178.58C190.784 183.894 191.781 189.651 192.666 195.851C193.552 202.05 194.327 208.14 194.991 214.118C195.656 220.096 196.098 225.743 196.32 231.057C196.763 236.149 197.095 240.356 197.316 243.678C197.538 247.663 197.648 251.87 197.648 256.299C197.87 260.506 197.87 264.602 197.648 268.588C197.648 272.352 197.427 275.784 196.984 278.884C196.763 281.984 196.32 284.309 195.656 285.859C194.327 289.18 192.002 291.505 188.681 292.833C185.581 293.941 182.038 294.716 178.053 295.158C176.06 295.38 172.628 295.491 167.756 295.491C163.107 295.269 158.014 295.048 152.478 294.826C147.164 294.383 142.071 293.941 137.2 293.498C132.329 293.055 128.675 292.612 126.24 292.169C121.368 291.062 117.826 289.623 115.611 287.851C113.619 286.08 111.626 283.534 109.633 280.212C108.969 278.884 108.415 275.563 107.972 270.248C107.53 264.713 107.197 258.181 106.976 250.653C106.976 242.903 107.087 234.599 107.308 225.743C107.53 216.886 107.862 208.472 108.305 200.5C108.969 192.529 109.633 185.554 110.297 179.576C111.183 173.598 112.29 169.612 113.619 167.619C115.833 164.519 119.597 161.641 124.911 158.984C130.447 156.327 135.429 154.223 139.857 152.673C142.071 152.009 144.95 151.566 148.493 151.345C152.257 150.902 156.132 150.902 160.117 151.345C164.324 151.566 168.31 152.23 172.074 153.338C175.838 154.223 178.938 155.552 181.374 157.323ZM162.774 260.284C163.217 259.399 163.66 256.742 164.103 252.313C164.767 247.663 165.21 242.128 165.431 235.707C165.874 229.285 166.096 222.421 166.096 215.114C166.317 207.807 166.428 201.054 166.428 194.854C166.428 188.654 166.206 183.451 165.764 179.244C165.321 174.815 164.767 172.269 164.103 171.605C162.996 170.719 161.335 170.387 159.121 170.608C157.128 170.608 155.025 170.941 152.81 171.605C150.596 172.048 148.603 172.712 146.832 173.598C145.061 174.262 143.843 174.926 143.179 175.59C140.3 178.026 138.75 182.012 138.529 187.547C138.529 189.097 138.307 193.526 137.864 200.833C137.643 207.918 137.532 215.668 137.532 224.082C137.532 232.275 137.643 239.914 137.864 246.999C138.307 254.085 139.082 258.402 140.189 259.952C141.296 261.502 142.846 262.72 144.839 263.606C147.053 264.27 149.268 264.602 151.482 264.602C153.917 264.602 156.132 264.27 158.125 263.606C160.339 262.72 161.889 261.613 162.774 260.284ZM255.865 223.75C257.636 226.85 260.293 231.5 263.836 237.699C267.6 243.899 271.586 250.763 275.793 258.292C280 265.82 284.317 273.57 288.746 281.541C293.174 289.512 297.049 296.819 300.371 303.462C303.692 310.104 306.238 315.64 308.01 320.068C310.002 324.497 310.667 326.932 310.002 327.375C308.895 328.04 307.235 328.372 305.02 328.372C302.806 328.15 300.481 327.818 298.046 327.375C295.61 326.711 293.285 325.936 291.071 325.05C289.078 323.943 287.639 322.947 286.753 322.061C279.225 311.876 272.471 302.465 266.493 293.83C260.736 285.194 255.643 277.666 251.215 271.245C246.122 263.938 241.583 257.185 237.597 250.985C236.933 261.392 236.269 271.245 235.605 280.545C234.94 289.844 234.276 298.148 233.612 305.455C232.947 312.54 232.173 318.297 231.287 322.725C230.623 326.932 229.958 329.147 229.294 329.368C227.523 329.59 225.641 328.925 223.648 327.375C221.655 325.604 219.773 323.5 218.001 321.065C216.23 318.408 214.569 315.751 213.02 313.094C211.691 310.215 210.916 307.779 210.695 305.787C209.366 285.637 208.259 267.591 207.373 251.649C206.709 235.485 206.045 221.203 205.38 208.804C204.938 196.404 204.605 185.665 204.384 176.587C204.384 167.287 204.384 159.427 204.384 153.005C204.384 137.727 204.827 127.21 205.713 121.453C206.598 117.024 208.591 112.817 211.691 108.832C215.012 104.625 218.555 100.971 222.319 97.8713C226.083 94.7714 229.626 92.4464 232.947 90.8965C236.269 89.3465 238.483 88.9037 239.59 89.5679C240.476 90.2322 241.029 94.1071 241.251 101.193C241.472 108.278 241.472 117.356 241.251 128.428C241.251 139.277 241.029 151.455 240.587 164.962C240.144 178.469 239.701 191.976 239.258 205.482C243.244 199.504 247.119 193.526 250.883 187.547C254.647 181.347 258.19 175.812 261.511 170.941C264.832 165.848 267.711 161.641 270.146 158.32C272.803 154.998 274.796 153.005 276.125 152.341C277.675 151.455 280.11 150.791 283.432 150.348C286.975 149.684 290.517 149.241 294.06 149.02C297.603 148.798 300.813 148.909 303.692 149.352C306.792 149.795 308.674 150.57 309.338 151.677C310.002 152.341 308.785 155.109 305.685 159.98C302.585 164.63 298.488 170.387 293.396 177.251C288.303 184.115 282.435 191.644 275.793 199.836C269.15 208.029 262.507 216 255.865 223.75ZM389.807 164.298C391.136 165.848 392.354 167.509 393.461 169.28C394.568 170.83 395.564 173.044 396.45 175.923C397.336 178.58 398 182.122 398.443 186.551C399.107 190.979 399.439 196.736 399.439 203.822C399.439 215.114 399.107 226.518 398.443 238.031C398 249.324 397.557 259.288 397.114 267.923C396.893 275.673 396.671 282.869 396.45 289.512C396.229 296.155 396.007 302.022 395.786 307.115C395.564 311.986 395.232 315.861 394.789 318.74C394.568 321.618 394.347 323.168 394.125 323.39C393.239 324.054 391.8 323.833 389.807 322.725C388.036 321.397 386.043 319.736 383.829 317.743C381.836 315.751 379.954 313.647 378.183 311.433C376.411 309.219 375.304 307.447 374.861 306.119C374.861 305.012 374.529 301.801 373.865 296.487C368.551 299.587 362.683 301.801 356.262 303.13C349.841 304.237 343.419 304.68 336.998 304.458C330.798 304.015 325.041 302.797 319.727 300.805C314.413 298.812 310.428 296.155 307.77 292.833C306.663 291.505 305.667 289.512 304.781 286.855C304.117 284.198 303.453 281.209 302.788 277.887C302.346 274.345 301.903 270.691 301.46 266.927C301.017 262.941 300.685 259.288 300.464 255.967C300.021 247.331 301.128 239.914 303.785 233.714C306.442 227.293 311.313 222.532 318.399 219.432C321.499 218.104 325.595 217.439 330.688 217.439C336.002 217.218 341.205 217.439 346.298 218.104C351.612 218.546 356.373 219.211 360.58 220.096C364.787 220.761 367.444 221.314 368.551 221.757C367.665 210.464 367.001 200.722 366.558 192.529C366.115 184.115 365.23 178.69 363.901 176.255C362.794 174.705 361.465 173.155 359.915 171.605C358.587 170.498 356.815 169.28 354.601 167.951C352.387 166.623 349.73 165.626 346.63 164.962C344.194 164.519 341.98 165.516 339.987 167.951C338.216 170.166 336.555 174.151 335.005 179.908C333.677 185.444 332.902 193.968 332.68 205.482C324.931 205.704 318.952 205.704 314.745 205.482C310.76 205.04 307.77 204.597 305.778 204.154C303.342 203.711 301.903 203.158 301.46 202.493C301.017 201.608 301.239 198.397 302.124 192.861C303.01 187.104 304.228 180.905 305.778 174.262C307.549 167.619 309.542 161.309 311.756 155.33C314.192 149.352 316.738 145.588 319.395 144.038C324.709 140.938 331.02 139.831 338.327 140.716C345.855 141.602 353.162 143.484 360.248 146.363C367.333 149.241 373.644 152.452 379.179 155.995C384.715 159.537 388.257 162.305 389.807 164.298ZM369.215 261.281C369.215 260.174 369.326 258.734 369.547 256.963C369.769 254.97 369.879 252.977 369.879 250.985C369.879 248.992 369.769 247.11 369.547 245.338C369.547 243.567 369.326 242.239 368.883 241.353C368.219 240.024 366.226 238.917 362.905 238.031C359.805 237.146 356.262 236.592 352.276 236.371C348.291 235.928 344.527 235.817 340.984 236.039C337.441 236.039 335.005 236.482 333.677 237.367C331.905 238.474 330.577 240.024 329.691 242.017C329.027 244.01 328.584 247.11 328.363 251.317C328.363 253.31 328.473 255.413 328.695 257.627C328.916 259.842 329.138 262.056 329.359 264.27C329.802 266.263 330.245 268.034 330.688 269.584C331.352 271.134 332.016 272.131 332.68 272.573C334.23 273.68 336.887 274.677 340.652 275.563C344.637 276.227 348.623 276.448 352.608 276.227C356.594 275.784 360.248 274.455 363.569 272.241C366.89 270.027 368.772 266.374 369.215 261.281Z" fill="url(#paint2_linear_2018_29)"/>
</g>
<mask id="mask0_2018_29" style="mask-type:alpha" maskUnits="userSpaceOnUse" x="15" y="88" width="385" height="264">
<path d="M15.8785 349.296C15.4356 348.189 15.2142 344.203 15.2142 337.339C15.2142 330.475 15.2142 321.84 15.2142 311.433C15.4356 301.026 15.6571 289.401 15.8785 276.559C16.3213 263.495 16.6535 250.32 16.8749 237.035C17.3177 223.528 17.7606 210.464 18.2034 197.843C18.6463 185.001 18.9784 173.598 19.1998 163.634C19.6427 153.67 19.9748 145.588 20.1962 139.388C20.4176 132.967 20.6391 129.535 20.8605 129.092C21.0819 128.206 22.0783 125.992 23.8497 122.449C25.6211 118.906 27.6139 115.253 29.8281 111.489C32.2637 107.503 34.6994 104.071 37.135 101.193C39.5707 98.0927 41.6742 96.6535 43.4455 96.8749C44.1098 97.0963 44.6634 101.525 45.1062 110.16C45.7705 118.574 46.324 129.424 46.7669 142.709C47.4311 155.995 47.874 170.719 48.0954 186.883C48.5383 202.825 48.8704 218.436 49.0918 233.714C49.5347 248.77 49.8668 262.499 50.0882 274.898C50.3096 287.077 50.5311 296.044 50.7525 301.801C57.838 302.465 64.9235 303.019 72.009 303.462C79.3159 303.905 85.8479 304.458 91.6049 305.122C97.3618 305.565 102.012 306.008 105.554 306.451C109.319 306.894 111.311 307.226 111.533 307.447C112.197 308.333 113.083 310.437 114.19 313.758C115.518 316.858 116.736 320.29 117.843 324.054C118.95 327.597 119.725 330.918 120.168 334.018C120.833 337.118 120.722 339 119.836 339.664C94.3726 344.314 74.6661 347.414 60.7165 348.964C46.7669 350.514 36.4707 351.289 29.8281 351.289C22.0783 351.289 17.4284 350.625 15.8785 349.296ZM181.374 157.323C182.924 158.652 184.363 161.198 185.692 164.962C187.242 168.726 188.57 173.266 189.677 178.58C190.784 183.894 191.781 189.651 192.666 195.851C193.552 202.05 194.327 208.14 194.991 214.118C195.656 220.096 196.098 225.743 196.32 231.057C196.763 236.149 197.095 240.356 197.316 243.678C197.538 247.663 197.648 251.87 197.648 256.299C197.87 260.506 197.87 264.602 197.648 268.588C197.648 272.352 197.427 275.784 196.984 278.884C196.763 281.984 196.32 284.309 195.656 285.859C194.327 289.18 192.002 291.505 188.681 292.833C185.581 293.941 182.038 294.716 178.053 295.158C176.06 295.38 172.628 295.491 167.756 295.491C163.107 295.269 158.014 295.048 152.478 294.826C147.164 294.383 142.071 293.941 137.2 293.498C132.329 293.055 128.675 292.612 126.24 292.169C121.368 291.062 117.826 289.623 115.611 287.851C113.619 286.08 111.626 283.534 109.633 280.212C108.969 278.884 108.415 275.563 107.972 270.248C107.53 264.713 107.197 258.181 106.976 250.653C106.976 242.903 107.087 234.599 107.308 225.743C107.53 216.886 107.862 208.472 108.305 200.5C108.969 192.529 109.633 185.554 110.297 179.576C111.183 173.598 112.29 169.612 113.619 167.619C115.833 164.519 119.597 161.641 124.911 158.984C130.447 156.327 135.429 154.223 139.857 152.673C142.071 152.009 144.95 151.566 148.493 151.345C152.257 150.902 156.132 150.902 160.117 151.345C164.324 151.566 168.31 152.23 172.074 153.338C175.838 154.223 178.938 155.552 181.374 157.323ZM162.774 260.284C163.217 259.399 163.66 256.742 164.103 252.313C164.767 247.663 165.21 242.128 165.431 235.707C165.874 229.285 166.096 222.421 166.096 215.114C166.317 207.807 166.428 201.054 166.428 194.854C166.428 188.654 166.206 183.451 165.764 179.244C165.321 174.815 164.767 172.269 164.103 171.605C162.996 170.719 161.335 170.387 159.121 170.608C157.128 170.608 155.025 170.941 152.81 171.605C150.596 172.048 148.603 172.712 146.832 173.598C145.061 174.262 143.843 174.926 143.179 175.59C140.3 178.026 138.75 182.012 138.529 187.547C138.529 189.097 138.307 193.526 137.864 200.833C137.643 207.918 137.532 215.668 137.532 224.082C137.532 232.275 137.643 239.914 137.864 246.999C138.307 254.085 139.082 258.402 140.189 259.952C141.296 261.502 142.846 262.72 144.839 263.606C147.053 264.27 149.268 264.602 151.482 264.602C153.917 264.602 156.132 264.27 158.125 263.606C160.339 262.72 161.889 261.613 162.774 260.284ZM255.865 223.75C257.636 226.85 260.293 231.5 263.836 237.699C267.6 243.899 271.586 250.763 275.793 258.292C280 265.82 284.317 273.57 288.746 281.541C293.174 289.512 297.049 296.819 300.371 303.462C303.692 310.104 306.238 315.64 308.01 320.068C310.002 324.497 310.667 326.932 310.002 327.375C308.895 328.04 307.235 328.372 305.02 328.372C302.806 328.15 300.481 327.818 298.046 327.375C295.61 326.711 293.285 325.936 291.071 325.05C289.078 323.943 287.639 322.947 286.753 322.061C279.225 311.876 272.471 302.465 266.493 293.83C260.736 285.194 255.643 277.666 251.215 271.245C246.122 263.938 241.583 257.185 237.597 250.985C236.933 261.392 236.269 271.245 235.605 280.545C234.94 289.844 234.276 298.148 233.612 305.455C232.947 312.54 232.173 318.297 231.287 322.725C230.623 326.932 229.958 329.147 229.294 329.368C227.523 329.59 225.641 328.925 223.648 327.375C221.655 325.604 219.773 323.5 218.001 321.065C216.23 318.408 214.569 315.751 213.02 313.094C211.691 310.215 210.916 307.779 210.695 305.787C209.366 285.637 208.259 267.591 207.373 251.649C206.709 235.485 206.045 221.203 205.38 208.804C204.938 196.404 204.605 185.665 204.384 176.587C204.384 167.287 204.384 159.427 204.384 153.005C204.384 137.727 204.827 127.21 205.713 121.453C206.598 117.024 208.591 112.817 211.691 108.832C215.012 104.625 218.555 100.971 222.319 97.8713C226.083 94.7714 229.626 92.4464 232.947 90.8965C236.269 89.3465 238.483 88.9037 239.59 89.5679C240.476 90.2322 241.029 94.1071 241.251 101.193C241.472 108.278 241.472 117.356 241.251 128.428C241.251 139.277 241.029 151.455 240.587 164.962C240.144 178.469 239.701 191.976 239.258 205.482C243.244 199.504 247.119 193.526 250.883 187.547C254.647 181.347 258.19 175.812 261.511 170.941C264.832 165.848 267.711 161.641 270.146 158.32C272.803 154.998 274.796 153.005 276.125 152.341C277.675 151.455 280.11 150.791 283.432 150.348C286.975 149.684 290.517 149.241 294.06 149.02C297.603 148.798 300.813 148.909 303.692 149.352C306.792 149.795 308.674 150.57 309.338 151.677C310.002 152.341 308.785 155.109 305.685 159.98C302.585 164.63 298.488 170.387 293.396 177.251C288.303 184.115 282.435 191.644 275.793 199.836C269.15 208.029 262.507 216 255.865 223.75ZM389.807 164.298C391.136 165.848 392.354 167.509 393.461 169.28C394.568 170.83 395.564 173.044 396.45 175.923C397.336 178.58 398 182.122 398.443 186.551C399.107 190.979 399.439 196.736 399.439 203.822C399.439 215.114 399.107 226.518 398.443 238.031C398 249.324 397.557 259.288 397.114 267.923C396.893 275.673 396.671 282.869 396.45 289.512C396.229 296.155 396.007 302.022 395.786 307.115C395.564 311.986 395.232 315.861 394.789 318.74C394.568 321.618 394.347 323.168 394.125 323.39C393.239 324.054 391.8 323.833 389.807 322.725C388.036 321.397 386.043 319.736 383.829 317.743C381.836 315.751 379.954 313.647 378.183 311.433C376.411 309.219 375.304 307.447 374.861 306.119C374.861 305.012 374.529 301.801 373.865 296.487C368.551 299.587 362.683 301.801 356.262 303.13C349.841 304.237 343.419 304.68 336.998 304.458C330.798 304.015 325.041 302.797 319.727 300.805C314.413 298.812 310.428 296.155 307.77 292.833C306.663 291.505 305.667 289.512 304.781 286.855C304.117 284.198 303.453 281.209 302.788 277.887C302.346 274.345 301.903 270.691 301.46 266.927C301.017 262.941 300.685 259.288 300.464 255.967C300.021 247.331 301.128 239.914 303.785 233.714C306.442 227.293 311.313 222.532 318.399 219.432C321.499 218.104 325.595 217.439 330.688 217.439C336.002 217.218 341.205 217.439 346.298 218.104C351.612 218.546 356.373 219.211 360.58 220.096C364.787 220.761 367.444 221.314 368.551 221.757C367.665 210.464 367.001 200.722 366.558 192.529C366.115 184.115 365.23 178.69 363.901 176.255C362.794 174.705 361.465 173.155 359.915 171.605C358.587 170.498 356.815 169.28 354.601 167.951C352.387 166.623 349.73 165.626 346.63 164.962C344.194 164.519 341.98 165.516 339.987 167.951C338.216 170.166 336.555 174.151 335.005 179.908C333.677 185.444 332.902 193.968 332.68 205.482C324.931 205.704 318.952 205.704 314.745 205.482C310.76 205.04 307.77 204.597 305.778 204.154C303.342 203.711 301.903 203.158 301.46 202.493C301.017 201.608 301.239 198.397 302.124 192.861C303.01 187.104 304.228 180.905 305.778 174.262C307.549 167.619 309.542 161.309 311.756 155.33C314.192 149.352 316.738 145.588 319.395 144.038C324.709 140.938 331.02 139.831 338.327 140.716C345.855 141.602 353.162 143.484 360.248 146.363C367.333 149.241 373.644 152.452 379.179 155.995C384.715 159.537 388.257 162.305 389.807 164.298ZM369.215 261.281C369.215 260.174 369.326 258.734 369.547 256.963C369.769 254.97 369.879 252.977 369.879 250.985C369.879 248.992 369.769 247.11 369.547 245.338C369.547 243.567 369.326 242.239 368.883 241.353C368.219 240.024 366.226 238.917 362.905 238.031C359.805 237.146 356.262 236.592 352.276 236.371C348.291 235.928 344.527 235.817 340.984 236.039C337.441 236.039 335.005 236.482 333.677 237.367C331.905 238.474 330.577 240.024 329.691 242.017C329.027 244.01 328.584 247.11 328.363 251.317C328.363 253.31 328.473 255.413 328.695 257.627C328.916 259.842 329.138 262.056 329.359 264.27C329.802 266.263 330.245 268.034 330.688 269.584C331.352 271.134 332.016 272.131 332.68 272.573C334.23 273.68 336.887 274.677 340.652 275.563C344.637 276.227 348.623 276.448 352.608 276.227C356.594 275.784 360.248 274.455 363.569 272.241C366.89 270.027 368.772 266.374 369.215 261.281Z" fill="url(#paint3_linear_2018_29)"/>
</mask>
<g mask="url(#mask0_2018_29)">
</g>
<defs>
<filter id="filter0_dd_2018_29" x="15.2141" y="88.1715" width="411.625" height="287.518" filterUnits="userSpaceOnUse" color-interpolation-filters="sRGB">
<feFlood flood-opacity="0" result="BackgroundImageFix"/>
<feColorMatrix in="SourceAlpha" type="matrix" values="0 0 0 0 0 0 0 0 0 0 0 0 0 0 0 0 0 0 127 0" result="hardAlpha"/>
<feOffset dx="15" dy="12"/>
<feGaussianBlur stdDeviation="6.2"/>
<feComposite in2="hardAlpha" operator="out"/>
<feColorMatrix type="matrix" values="0 0 0 0 0 0 0 0 0 0 0 0 0 0 0 0 0 0 0.25 0"/>
<feBlend mode="normal" in2="BackgroundImageFix" result="effect1_dropShadow_2018_29"/>
<feColorMatrix in="SourceAlpha" type="matrix" values="0 0 0 0 0 0 0 0 0 0 0 0 0 0 0 0 0 0 127 0" result="hardAlpha"/>
<feOffset dx="11" dy="11"/>
<feComposite in2="hardAlpha" operator="out"/>
<feColorMatrix type="matrix" values="0 0 0 0 1 0 0 0 0 1 0 0 0 0 1 0 0 0 1 0"/>
<feBlend mode="normal" in2="effect1_dropShadow_2018_29" result="effect2_dropShadow_2018_29"/>
<feBlend mode="normal" in="SourceGraphic" in2="effect2_dropShadow_2018_29" result="shape"/>
</filter>
<linearGradient id="paint0_linear_2018_29" x1="213" y1="107" x2="206.226" y2="278.562" gradientUnits="userSpaceOnUse">
<stop stop-color="#EA3800"/>
<stop offset="1" stop-color="#842000"/>
</linearGradient>
<linearGradient id="paint1_linear_2018_29" x1="394.5" y1="101" x2="268.575" y2="383.914" gradientUnits="userSpaceOnUse">
<stop stop-color="#FCDC2A"/>
<stop offset="1" stop-color="#E36823"/>
</linearGradient>
<linearGradient id="paint2_linear_2018_29" x1="228.5" y1="15.5" x2="208.564" y2="284.764" gradientUnits="userSpaceOnUse">
<stop stop-color="#FCDC2A"/>
<stop offset="0.485" stop-color="#90AD22"/>
<stop offset="1" stop-color="#114232"/>
</linearGradient>
<linearGradient id="paint3_linear_2018_29" x1="193.896" y1="121.5" x2="231.612" y2="378.092" gradientUnits="userSpaceOnUse">
<stop stop-color="#90AD22"/>
<stop offset="1" stop-color="#114232"/>
</linearGradient>
</defs>
</svg>
