<svg width="152" height="153" viewBox="0 0 152 153" fill="none" xmlns="http://www.w3.org/2000/svg">
<path fill-rule="evenodd" clip-rule="evenodd" d="M84.2889 29.0951C99.1794 26.9367 115.534 20.3885 128.607 27.4668C141.795 34.6075 148.51 50.0687 147.448 63.2913C146.454 75.6606 128.974 81.1062 123.39 92.3911C117.674 103.945 125.706 120.209 115.092 128.689C104.39 137.238 86.8693 135.881 72.3067 133.203C58.479 130.659 47.8991 122.014 36.7544 114.277C24.5973 105.838 4.9825 99.5148 4.62675 86.2203C4.25502 72.3285 24.5962 66.4049 35.2032 56.3095C41.8702 49.9641 46.8225 42.7415 55.1734 38.1115C64.0352 33.1984 73.8174 30.6131 84.2889 29.0951Z" stroke="url(#paint0_linear_2018_29)" stroke-width="8.08965"/>
<g filter="url(#filter0_d_2018_29)">
<path d="M9.45374 122.621C9.29798 122.232 9.2201 120.83 9.2201 118.416C9.2201 116.002 9.2201 112.964 9.2201 109.304C9.29798 105.644 9.37586 101.555 9.45374 97.038C9.6095 92.4431 9.72632 87.8093 9.8042 83.1365C9.95996 78.3858 10.1157 73.7909 10.2715 69.3518C10.4272 64.8348 10.5441 60.824 10.6219 57.3194C10.7777 53.8148 10.8945 50.9722 10.9724 48.7916C11.0503 46.5331 11.1282 45.326 11.206 45.1702C11.2839 44.8587 11.6344 44.0799 12.2574 42.8338C12.8804 41.5878 13.5814 40.3027 14.3602 38.9788C15.2168 37.577 16.0735 36.3698 16.9302 35.3574C17.7868 34.2671 18.5267 33.7609 19.1497 33.8387C19.3834 33.9166 19.5781 35.4742 19.7338 38.5115C19.9675 41.4709 20.1622 45.287 20.3179 49.9598C20.5516 54.6326 20.7073 59.8116 20.7852 65.4968C20.941 71.1041 21.0578 76.5946 21.1357 81.9683C21.2914 87.2641 21.4082 92.0926 21.4861 96.4539C21.564 100.737 21.6419 103.891 21.7198 105.916C24.2119 106.15 26.7041 106.345 29.1962 106.5C31.7662 106.656 34.0637 106.851 36.0885 107.084C38.1134 107.24 39.7489 107.396 40.9949 107.552C42.3189 107.707 43.0198 107.824 43.0977 107.902C43.3313 108.214 43.6428 108.954 44.0322 110.122C44.4995 111.212 44.9279 112.419 45.3173 113.743C45.7067 114.989 45.9792 116.157 46.135 117.248C46.3686 118.338 46.3297 119 46.0182 119.234C37.062 120.869 30.1308 121.959 25.2243 122.505C20.3179 123.05 16.6965 123.322 14.3602 123.322C11.6344 123.322 9.9989 123.089 9.45374 122.621ZM67.6625 55.0999C68.2076 55.5671 68.7138 56.4627 69.1811 57.7867C69.7263 59.1107 70.1935 60.7072 70.5829 62.5763C70.9723 64.4454 71.3228 66.4703 71.6343 68.6509C71.9458 70.8315 72.2184 72.9732 72.452 75.076C72.6857 77.1787 72.8414 79.1646 72.9193 81.0337C73.0751 82.825 73.1919 84.3047 73.2698 85.4729C73.3477 86.8747 73.3866 88.3544 73.3866 89.912C73.4645 91.3917 73.4645 92.8325 73.3866 94.2343C73.3866 95.5583 73.3087 96.7654 73.153 97.8557C73.0751 98.946 72.9193 99.7638 72.6857 100.309C72.2184 101.477 71.4007 102.295 70.2325 102.762C69.1422 103.152 67.8961 103.424 66.4943 103.58C65.7933 103.658 64.5862 103.697 62.8729 103.697C61.2374 103.619 59.4462 103.541 57.4992 103.463C55.6301 103.307 53.8388 103.152 52.1255 102.996C50.4121 102.84 49.1271 102.684 48.2705 102.528C46.5571 102.139 45.311 101.633 44.5322 101.01C43.8313 100.387 43.1304 99.4912 42.4295 98.323C42.1958 97.8557 42.0012 96.6875 41.8454 94.8184C41.6896 92.8714 41.5728 90.574 41.4949 87.9261C41.4949 85.2003 41.5339 82.2798 41.6118 79.1646C41.6896 76.0494 41.8065 73.09 41.9622 70.2864C42.1958 67.4827 42.4295 65.0295 42.6631 62.9267C42.9746 60.824 43.364 59.4222 43.8313 58.7213C44.6101 57.6309 45.9341 56.6185 47.8032 55.684C49.7502 54.7494 51.5025 54.0095 53.06 53.4644C53.8388 53.2307 54.8513 53.075 56.0973 52.9971C57.4213 52.8413 58.7842 52.8413 60.186 52.9971C61.6657 53.075 63.0676 53.3086 64.3915 53.698C65.7155 54.0095 66.8058 54.4768 67.6625 55.0999ZM61.1206 91.3138C61.2763 91.0023 61.4321 90.0678 61.5878 88.5102C61.8215 86.8747 61.9772 84.9277 62.0551 82.6692C62.2109 80.4107 62.2888 77.9964 62.2888 75.4264C62.3666 72.8564 62.4056 70.4811 62.4056 68.3004C62.4056 66.1198 62.3277 64.2896 62.1719 62.8099C62.0162 61.2523 61.8215 60.3567 61.5878 60.1231C61.1985 59.8116 60.6144 59.6947 59.8356 59.7726C59.1346 59.7726 58.3948 59.8894 57.616 60.1231C56.8372 60.2788 56.1363 60.5125 55.5132 60.824C54.8902 61.0576 54.4619 61.2913 54.2282 61.5249C53.2158 62.3816 52.6706 63.7834 52.5928 65.7304C52.5928 66.2756 52.5149 67.8332 52.3591 70.4032C52.2812 72.8953 52.2423 75.6211 52.2423 78.5805C52.2423 81.4621 52.2812 84.1489 52.3591 86.6411C52.5149 89.1332 52.7875 90.6519 53.1769 91.197C53.5663 91.7422 54.1114 92.1705 54.8123 92.482C55.5911 92.7157 56.3699 92.8325 57.1487 92.8325C58.0054 92.8325 58.7842 92.7157 59.4851 92.482C60.2639 92.1705 60.8091 91.7811 61.1206 91.3138ZM93.8627 78.4637C94.4857 79.554 95.4203 81.1895 96.6663 83.3701C97.9903 85.5507 99.3921 87.965 100.872 90.6129C102.352 93.2608 103.87 95.9866 105.428 98.7903C106.985 101.594 108.348 104.164 109.516 106.5C110.685 108.837 111.58 110.784 112.203 112.341C112.904 113.899 113.138 114.756 112.904 114.911C112.515 115.145 111.931 115.262 111.152 115.262C110.373 115.184 109.555 115.067 108.699 114.911C107.842 114.678 107.024 114.405 106.246 114.094C105.545 113.704 105.038 113.354 104.727 113.042C102.079 109.46 99.7036 106.15 97.6009 103.113C95.576 100.075 93.7848 97.4274 92.2272 95.1689C90.436 92.5988 88.8394 90.2235 87.4376 88.0429C87.204 91.7032 86.9703 95.1689 86.7367 98.4398C86.5031 101.711 86.2694 104.631 86.0358 107.201C85.8021 109.693 85.5296 111.718 85.2181 113.276C84.9844 114.756 84.7508 115.534 84.5171 115.612C83.8941 115.69 83.2321 115.456 82.5312 114.911C81.8303 114.288 81.1683 113.548 80.5453 112.692C79.9222 111.757 79.3381 110.823 78.793 109.888C78.3257 108.876 78.0531 108.019 77.9753 107.318C77.508 100.231 77.1186 93.8839 76.8071 88.2765C76.5734 82.5913 76.3398 77.5681 76.1061 73.2068C75.9504 68.8456 75.8336 65.0684 75.7557 61.8754C75.7557 58.6044 75.7557 55.8397 75.7557 53.5812C75.7557 48.2075 75.9114 44.5082 76.223 42.4834C76.5345 40.9258 77.2354 39.4461 78.3257 38.0442C79.4939 36.5645 80.74 35.2795 82.0639 34.1892C83.3879 33.0989 84.634 32.2812 85.8021 31.736C86.9703 31.1908 87.7491 31.0351 88.1385 31.2687C88.4501 31.5024 88.6448 32.8653 88.7226 35.3574C88.8005 37.8495 88.8005 41.0426 88.7226 44.9366C88.7226 48.7527 88.6448 53.036 88.489 57.7867C88.3332 62.5373 88.1775 67.288 88.0217 72.0387C89.4235 69.9359 90.7864 67.8332 92.1104 65.7304C93.4343 63.5498 94.6804 61.6028 95.8486 59.8894C97.0168 58.0982 98.0292 56.6185 98.8859 55.4503C99.8205 54.2821 100.521 53.5812 100.989 53.3476C101.534 53.036 102.39 52.8024 103.559 52.6467C104.805 52.413 106.051 52.2573 107.297 52.1794C108.543 52.1015 109.672 52.1404 110.685 52.2962C111.775 52.452 112.437 52.7245 112.671 53.1139C112.904 53.3476 112.476 54.3211 111.386 56.0344C110.295 57.6699 108.854 59.6947 107.063 62.109C105.272 64.5233 103.208 67.1712 100.872 70.0527C98.5354 72.9343 96.1991 75.7379 93.8627 78.4637ZM140.974 57.5531C141.441 58.0982 141.869 58.6823 142.259 59.3053C142.648 59.8505 142.998 60.6293 143.31 61.6417C143.621 62.5763 143.855 63.8224 144.011 65.38C144.244 66.9375 144.361 68.9624 144.361 71.4546C144.361 75.4264 144.244 79.4372 144.011 83.4869C143.855 87.4588 143.699 90.9634 143.544 94.0007C143.466 96.7265 143.388 99.2575 143.31 101.594C143.232 103.93 143.154 105.994 143.076 107.785C142.998 109.499 142.882 110.862 142.726 111.874C142.648 112.886 142.57 113.432 142.492 113.509C142.181 113.743 141.674 113.665 140.974 113.276C140.351 112.809 139.65 112.224 138.871 111.524C138.17 110.823 137.508 110.083 136.885 109.304C136.262 108.525 135.872 107.902 135.717 107.435C135.717 107.045 135.6 105.916 135.366 104.047C133.497 105.137 131.433 105.916 129.175 106.384C126.916 106.773 124.658 106.929 122.399 106.851C120.219 106.695 118.194 106.267 116.325 105.566C114.456 104.865 113.054 103.93 112.119 102.762C111.73 102.295 111.379 101.594 111.068 100.659C110.834 99.7248 110.601 98.6734 110.367 97.5053C110.211 96.2592 110.055 94.9742 109.9 93.6502C109.744 92.2484 109.627 90.9634 109.549 89.7952C109.393 86.7579 109.783 84.1489 110.717 81.9683C111.652 79.7098 113.365 78.0354 115.857 76.9451C116.948 76.4778 118.388 76.2441 120.18 76.2441C122.049 76.1663 123.879 76.2441 125.67 76.4778C127.539 76.6335 129.214 76.8672 130.693 77.1787C132.173 77.4123 133.108 77.607 133.497 77.7628C133.186 73.7909 132.952 70.3642 132.796 67.4827C132.64 64.5233 132.329 62.6152 131.862 61.7586C131.472 61.2134 131.005 60.6682 130.46 60.1231C129.993 59.7337 129.37 59.3053 128.591 58.8381C127.812 58.3708 126.877 58.0203 125.787 57.7867C124.93 57.6309 124.152 57.9814 123.451 58.8381C122.828 59.6169 122.244 61.0187 121.698 63.0436C121.231 64.9906 120.959 67.9889 120.881 72.0387C118.155 72.1165 116.052 72.1165 114.572 72.0387C113.171 71.8829 112.119 71.7271 111.418 71.5714C110.562 71.4156 110.055 71.2209 109.9 70.9873C109.744 70.6758 109.822 69.5465 110.133 67.5995C110.445 65.5747 110.873 63.394 111.418 61.0576C112.041 58.7213 112.742 56.5017 113.521 54.3989C114.378 52.2962 115.273 50.9722 116.208 50.4271C118.077 49.3368 120.297 48.9474 122.867 49.2589C125.514 49.5704 128.084 50.2324 130.577 51.2448C133.069 52.2573 135.288 53.3865 137.235 54.6326C139.182 55.8787 140.428 56.8521 140.974 57.5531ZM133.731 91.6643C133.731 91.2749 133.77 90.7687 133.848 90.1456C133.925 89.4447 133.964 88.7438 133.964 88.0429C133.964 87.342 133.925 86.68 133.848 86.057C133.848 85.4339 133.77 84.9667 133.614 84.6551C133.38 84.1879 132.679 83.7985 131.511 83.4869C130.421 83.1754 129.175 82.9807 127.773 82.9028C126.371 82.7471 125.047 82.7081 123.801 82.786C122.555 82.786 121.698 82.9418 121.231 83.2533C120.608 83.6427 120.141 84.1879 119.829 84.8888C119.596 85.5897 119.44 86.68 119.362 88.1597C119.362 88.8606 119.401 89.6005 119.479 90.3793C119.557 91.1581 119.635 91.9369 119.712 92.7157C119.868 93.4166 120.024 94.0396 120.18 94.5848C120.413 95.1299 120.647 95.4804 120.881 95.6361C121.426 96.0255 122.36 96.376 123.684 96.6875C125.086 96.9212 126.488 96.999 127.89 96.9212C129.292 96.7654 130.577 96.2981 131.745 95.5193C132.913 94.7405 133.575 93.4555 133.731 91.6643Z" fill="white"/>
</g>
<mask id="mask0_2018_29" style="mask-type:alpha" maskUnits="userSpaceOnUse" x="9" y="30" width="136" height="94">
<path d="M9.45374 122.621C9.29798 122.232 9.2201 120.83 9.2201 118.416C9.2201 116.002 9.2201 112.964 9.2201 109.304C9.29798 105.644 9.37586 101.555 9.45374 97.038C9.6095 92.4431 9.72632 87.8093 9.8042 83.1365C9.95996 78.3858 10.1157 73.7909 10.2715 69.3518C10.4272 64.8348 10.5441 60.824 10.6219 57.3194C10.7777 53.8148 10.8945 50.9722 10.9724 48.7916C11.0503 46.5331 11.1282 45.326 11.206 45.1702C11.2839 44.8587 11.6344 44.0799 12.2574 42.8338C12.8804 41.5878 13.5814 40.3027 14.3602 38.9788C15.2168 37.577 16.0735 36.3698 16.9302 35.3574C17.7868 34.2671 18.5267 33.7609 19.1497 33.8387C19.3834 33.9166 19.5781 35.4742 19.7338 38.5115C19.9675 41.4709 20.1622 45.287 20.3179 49.9598C20.5516 54.6326 20.7073 59.8116 20.7852 65.4968C20.941 71.1041 21.0578 76.5946 21.1357 81.9683C21.2914 87.2641 21.4082 92.0926 21.4861 96.4539C21.564 100.737 21.6419 103.891 21.7198 105.916C24.2119 106.15 26.7041 106.345 29.1962 106.5C31.7662 106.656 34.0637 106.851 36.0885 107.084C38.1134 107.24 39.7489 107.396 40.9949 107.552C42.3189 107.707 43.0198 107.824 43.0977 107.902C43.3313 108.214 43.6428 108.954 44.0322 110.122C44.4995 111.212 44.9279 112.419 45.3173 113.743C45.7067 114.989 45.9792 116.157 46.135 117.248C46.3686 118.338 46.3297 119 46.0182 119.234C37.062 120.869 30.1308 121.959 25.2243 122.505C20.3179 123.05 16.6965 123.322 14.3602 123.322C11.6344 123.322 9.9989 123.089 9.45374 122.621ZM67.6625 55.0999C68.2076 55.5671 68.7138 56.4627 69.1811 57.7867C69.7263 59.1107 70.1935 60.7072 70.5829 62.5763C70.9723 64.4454 71.3228 66.4703 71.6343 68.6509C71.9458 70.8315 72.2184 72.9732 72.452 75.076C72.6857 77.1787 72.8414 79.1646 72.9193 81.0337C73.0751 82.825 73.1919 84.3047 73.2698 85.4729C73.3477 86.8747 73.3866 88.3544 73.3866 89.912C73.4645 91.3917 73.4645 92.8325 73.3866 94.2343C73.3866 95.5583 73.3087 96.7654 73.153 97.8557C73.0751 98.946 72.9193 99.7638 72.6857 100.309C72.2184 101.477 71.4007 102.295 70.2325 102.762C69.1422 103.152 67.8961 103.424 66.4943 103.58C65.7933 103.658 64.5862 103.697 62.8729 103.697C61.2374 103.619 59.4462 103.541 57.4992 103.463C55.6301 103.307 53.8388 103.152 52.1255 102.996C50.4121 102.84 49.1271 102.684 48.2705 102.528C46.5571 102.139 45.311 101.633 44.5322 101.01C43.8313 100.387 43.1304 99.4912 42.4295 98.323C42.1958 97.8557 42.0012 96.6875 41.8454 94.8184C41.6896 92.8714 41.5728 90.574 41.4949 87.9261C41.4949 85.2003 41.5339 82.2798 41.6118 79.1646C41.6896 76.0494 41.8065 73.09 41.9622 70.2864C42.1958 67.4827 42.4295 65.0295 42.6631 62.9267C42.9746 60.824 43.364 59.4222 43.8313 58.7213C44.6101 57.6309 45.9341 56.6185 47.8032 55.684C49.7502 54.7494 51.5025 54.0095 53.06 53.4644C53.8388 53.2307 54.8513 53.075 56.0973 52.9971C57.4213 52.8413 58.7842 52.8413 60.186 52.9971C61.6657 53.075 63.0676 53.3086 64.3915 53.698C65.7155 54.0095 66.8058 54.4768 67.6625 55.0999ZM61.1206 91.3138C61.2763 91.0023 61.4321 90.0678 61.5878 88.5102C61.8215 86.8747 61.9772 84.9277 62.0551 82.6692C62.2109 80.4107 62.2888 77.9964 62.2888 75.4264C62.3666 72.8564 62.4056 70.4811 62.4056 68.3004C62.4056 66.1198 62.3277 64.2896 62.1719 62.8099C62.0162 61.2523 61.8215 60.3567 61.5878 60.1231C61.1985 59.8116 60.6144 59.6947 59.8356 59.7726C59.1346 59.7726 58.3948 59.8894 57.616 60.1231C56.8372 60.2788 56.1363 60.5125 55.5132 60.824C54.8902 61.0576 54.4619 61.2913 54.2282 61.5249C53.2158 62.3816 52.6706 63.7834 52.5928 65.7304C52.5928 66.2756 52.5149 67.8332 52.3591 70.4032C52.2812 72.8953 52.2423 75.6211 52.2423 78.5805C52.2423 81.4621 52.2812 84.1489 52.3591 86.6411C52.5149 89.1332 52.7875 90.6519 53.1769 91.197C53.5663 91.7422 54.1114 92.1705 54.8123 92.482C55.5911 92.7157 56.3699 92.8325 57.1487 92.8325C58.0054 92.8325 58.7842 92.7157 59.4851 92.482C60.2639 92.1705 60.8091 91.7811 61.1206 91.3138ZM93.8627 78.4637C94.4857 79.554 95.4203 81.1895 96.6663 83.3701C97.9903 85.5507 99.3921 87.965 100.872 90.6129C102.352 93.2608 103.87 95.9866 105.428 98.7903C106.985 101.594 108.348 104.164 109.516 106.5C110.685 108.837 111.58 110.784 112.203 112.341C112.904 113.899 113.138 114.756 112.904 114.911C112.515 115.145 111.931 115.262 111.152 115.262C110.373 115.184 109.555 115.067 108.699 114.911C107.842 114.678 107.024 114.405 106.246 114.094C105.545 113.704 105.038 113.354 104.727 113.042C102.079 109.46 99.7036 106.15 97.6009 103.113C95.576 100.075 93.7848 97.4274 92.2272 95.1689C90.436 92.5988 88.8394 90.2235 87.4376 88.0429C87.204 91.7032 86.9703 95.1689 86.7367 98.4398C86.5031 101.711 86.2694 104.631 86.0358 107.201C85.8021 109.693 85.5296 111.718 85.2181 113.276C84.9844 114.756 84.7508 115.534 84.5171 115.612C83.8941 115.69 83.2321 115.456 82.5312 114.911C81.8303 114.288 81.1683 113.548 80.5453 112.692C79.9222 111.757 79.3381 110.823 78.793 109.888C78.3257 108.876 78.0531 108.019 77.9753 107.318C77.508 100.231 77.1186 93.8839 76.8071 88.2765C76.5734 82.5913 76.3398 77.5681 76.1061 73.2068C75.9504 68.8456 75.8336 65.0684 75.7557 61.8754C75.7557 58.6044 75.7557 55.8397 75.7557 53.5812C75.7557 48.2075 75.9114 44.5082 76.223 42.4834C76.5345 40.9258 77.2354 39.4461 78.3257 38.0442C79.4939 36.5645 80.74 35.2795 82.0639 34.1892C83.3879 33.0989 84.634 32.2812 85.8021 31.736C86.9703 31.1908 87.7491 31.0351 88.1385 31.2687C88.4501 31.5024 88.6448 32.8653 88.7226 35.3574C88.8005 37.8495 88.8005 41.0426 88.7226 44.9366C88.7226 48.7527 88.6448 53.036 88.489 57.7867C88.3332 62.5373 88.1775 67.288 88.0217 72.0387C89.4235 69.9359 90.7864 67.8332 92.1104 65.7304C93.4343 63.5498 94.6804 61.6028 95.8486 59.8894C97.0168 58.0982 98.0292 56.6185 98.8859 55.4503C99.8205 54.2821 100.521 53.5812 100.989 53.3476C101.534 53.036 102.39 52.8024 103.559 52.6467C104.805 52.413 106.051 52.2573 107.297 52.1794C108.543 52.1015 109.672 52.1404 110.685 52.2962C111.775 52.452 112.437 52.7245 112.671 53.1139C112.904 53.3476 112.476 54.3211 111.386 56.0344C110.295 57.6699 108.854 59.6947 107.063 62.109C105.272 64.5233 103.208 67.1712 100.872 70.0527C98.5354 72.9343 96.1991 75.7379 93.8627 78.4637ZM140.974 57.5531C141.441 58.0982 141.869 58.6823 142.259 59.3053C142.648 59.8505 142.998 60.6293 143.31 61.6417C143.621 62.5763 143.855 63.8224 144.011 65.38C144.244 66.9375 144.361 68.9624 144.361 71.4546C144.361 75.4264 144.244 79.4372 144.011 83.4869C143.855 87.4588 143.699 90.9634 143.544 94.0007C143.466 96.7265 143.388 99.2575 143.31 101.594C143.232 103.93 143.154 105.994 143.076 107.785C142.998 109.499 142.882 110.862 142.726 111.874C142.648 112.886 142.57 113.432 142.492 113.509C142.181 113.743 141.674 113.665 140.974 113.276C140.351 112.809 139.65 112.224 138.871 111.524C138.17 110.823 137.508 110.083 136.885 109.304C136.262 108.525 135.872 107.902 135.717 107.435C135.717 107.045 135.6 105.916 135.366 104.047C133.497 105.137 131.433 105.916 129.175 106.384C126.916 106.773 124.658 106.929 122.399 106.851C120.219 106.695 118.194 106.267 116.325 105.566C114.456 104.865 113.054 103.93 112.119 102.762C111.73 102.295 111.379 101.594 111.068 100.659C110.834 99.7248 110.601 98.6734 110.367 97.5053C110.211 96.2592 110.055 94.9742 109.9 93.6502C109.744 92.2484 109.627 90.9634 109.549 89.7952C109.393 86.7579 109.783 84.1489 110.717 81.9683C111.652 79.7098 113.365 78.0354 115.857 76.9451C116.948 76.4778 118.388 76.2441 120.18 76.2441C122.049 76.1663 123.879 76.2441 125.67 76.4778C127.539 76.6335 129.214 76.8672 130.693 77.1787C132.173 77.4123 133.108 77.607 133.497 77.7628C133.186 73.7909 132.952 70.3642 132.796 67.4827C132.64 64.5233 132.329 62.6152 131.862 61.7586C131.472 61.2134 131.005 60.6682 130.46 60.1231C129.993 59.7337 129.37 59.3053 128.591 58.8381C127.812 58.3708 126.877 58.0203 125.787 57.7867C124.93 57.6309 124.152 57.9814 123.451 58.8381C122.828 59.6169 122.244 61.0187 121.698 63.0436C121.231 64.9906 120.959 67.9889 120.881 72.0387C118.155 72.1165 116.052 72.1165 114.572 72.0387C113.171 71.8829 112.119 71.7271 111.418 71.5714C110.562 71.4156 110.055 71.2209 109.9 70.9873C109.744 70.6758 109.822 69.5465 110.133 67.5995C110.445 65.5747 110.873 63.394 111.418 61.0576C112.041 58.7213 112.742 56.5017 113.521 54.3989C114.378 52.2962 115.273 50.9722 116.208 50.4271C118.077 49.3368 120.297 48.9474 122.867 49.2589C125.514 49.5704 128.084 50.2324 130.577 51.2448C133.069 52.2573 135.288 53.3865 137.235 54.6326C139.182 55.8787 140.428 56.8521 140.974 57.5531ZM133.731 91.6643C133.731 91.2749 133.77 90.7687 133.848 90.1456C133.925 89.4447 133.964 88.7438 133.964 88.0429C133.964 87.342 133.925 86.68 133.848 86.057C133.848 85.4339 133.77 84.9667 133.614 84.6551C133.38 84.1879 132.679 83.7985 131.511 83.4869C130.421 83.1754 129.175 82.9807 127.773 82.9028C126.371 82.7471 125.047 82.7081 123.801 82.786C122.555 82.786 121.698 82.9418 121.231 83.2533C120.608 83.6427 120.141 84.1879 119.829 84.8888C119.596 85.5897 119.44 86.68 119.362 88.1597C119.362 88.8606 119.401 89.6005 119.479 90.3793C119.557 91.1581 119.635 91.9369 119.712 92.7157C119.868 93.4166 120.024 94.0396 120.18 94.5848C120.413 95.1299 120.647 95.4804 120.881 95.6361C121.426 96.0255 122.36 96.376 123.684 96.6875C125.086 96.9212 126.488 96.999 127.89 96.9212C129.292 96.7654 130.577 96.2981 131.745 95.5193C132.913 94.7405 133.575 93.4555 133.731 91.6643Z" fill="url(#paint1_linear_2018_29)"/>
</mask>
<g mask="url(#mask0_2018_29)">
</g>
<defs>
<filter id="filter0_d_2018_29" x="8.51677" y="30.9182" width="138.658" height="95.9213" filterUnits="userSpaceOnUse" color-interpolation-filters="sRGB">
<feFlood flood-opacity="0" result="BackgroundImageFix"/>
<feColorMatrix in="SourceAlpha" type="matrix" values="0 0 0 0 0 0 0 0 0 0 0 0 0 0 0 0 0 0 127 0" result="hardAlpha"/>
<feOffset dx="1.05517" dy="1.75862"/>
<feGaussianBlur stdDeviation="0.87931"/>
<feComposite in2="hardAlpha" operator="out"/>
<feColorMatrix type="matrix" values="0 0 0 0 0 0 0 0 0 0 0 0 0 0 0 0 0 0 0.25 0"/>
<feBlend mode="normal" in2="BackgroundImageFix" result="effect1_dropShadow_2018_29"/>
<feBlend mode="normal" in="SourceGraphic" in2="effect1_dropShadow_2018_29" result="shape"/>
</filter>
<linearGradient id="paint0_linear_2018_29" x1="69.8674" y1="66.4535" x2="263.065" y2="177.524" gradientUnits="userSpaceOnUse">
<stop stop-color="#FCDC2A"/>
<stop offset="1" stop-color="#E36823"/>
</linearGradient>
<linearGradient id="paint1_linear_2018_29" x1="72.0669" y1="42.7345" x2="85.3323" y2="132.984" gradientUnits="userSpaceOnUse">
<stop stop-color="#90AD22"/>
<stop offset="1" stop-color="#114232"/>
</linearGradient>
</defs>
</svg>
